<mxfile host="65bd71144e">
    <diagram id="uszXoUtOeSDrkuwmEiRa" name="ページ1">
        <mxGraphModel dx="1174" dy="418" grid="1" gridSize="10" guides="1" tooltips="1" connect="1" arrows="1" fold="1" page="1" pageScale="1" pageWidth="827" pageHeight="1169" math="0" shadow="0">
            <root>
                <mxCell id="0"/>
                <mxCell id="1" parent="0"/>
                <mxCell id="2" value="" style="rounded=0;whiteSpace=wrap;html=1;fillColor=none;" parent="1" vertex="1">
                    <mxGeometry x="80" y="80" width="480" height="360" as="geometry"/>
                </mxCell>
                <mxCell id="3" value="ts-reversi" style="rounded=0;whiteSpace=wrap;html=1;fillColor=none;" parent="1" vertex="1">
                    <mxGeometry x="80" y="80" width="480" height="40" as="geometry"/>
                </mxCell>
                <mxCell id="6" value="Game start" style="rounded=1;whiteSpace=wrap;html=1;fillColor=none;" parent="1" vertex="1">
                    <mxGeometry x="280" y="140" width="80" height="30" as="geometry"/>
                </mxCell>
                <mxCell id="7" value="History" style="rounded=0;whiteSpace=wrap;html=1;fillColor=none;" parent="1" vertex="1">
                    <mxGeometry x="160" y="200" width="320" height="200" as="geometry"/>
                </mxCell>
                <mxCell id="8" value="" style="rounded=0;whiteSpace=wrap;html=1;fillColor=none;" parent="1" vertex="1">
                    <mxGeometry x="640" y="80" width="480" height="360" as="geometry"/>
                </mxCell>
                <mxCell id="9" value="ts-reversi" style="rounded=0;whiteSpace=wrap;html=1;fillColor=none;" parent="1" vertex="1">
                    <mxGeometry x="640" y="80" width="480" height="40" as="geometry"/>
                </mxCell>
                <mxCell id="10" value="skip your turn" style="rounded=1;whiteSpace=wrap;html=1;fillColor=none;" parent="1" vertex="1">
                    <mxGeometry x="760" y="140" width="240" height="20" as="geometry"/>
                </mxCell>
                <mxCell id="11" value="board" style="rounded=0;whiteSpace=wrap;html=1;fillColor=none;" parent="1" vertex="1">
                    <mxGeometry x="760" y="180" width="240" height="200" as="geometry"/>
                </mxCell>
                <mxCell id="13" value="Black&#39;s turn" style="text;html=1;align=center;verticalAlign=middle;resizable=0;points=[];autosize=1;strokeColor=none;fillColor=none;" parent="1" vertex="1">
                    <mxGeometry x="835" y="395" width="90" height="30" as="geometry"/>
                </mxCell>
            </root>
        </mxGraphModel>
    </diagram>
</mxfile>